<?xml version="1.0" standalone="no"?>
<!DOCTYPE svg PUBLIC "-//W3C//DTD SVG 20010904//EN"
 "http://www.w3.org/TR/2001/REC-SVG-20010904/DTD/svg10.dtd">
<svg version="1.0" xmlns="http://www.w3.org/2000/svg"
 width="38" height="38" viewBox="0 0 512.000000 512.000000"
 preserveAspectRatio="xMidYMid meet">
<metadata>
Created by potrace 1.16, written by Peter Selinger 2001-2019
</metadata>
<g transform="translate(0.000000,512.000000) scale(0.100000,-0.100000)"
fill="#000000" stroke="none">
<path d="M1855 4960 c-63 -9 -149 -34 -211 -61 -116 -49 -187 -111 -577 -498
-214 -212 -396 -399 -407 -416 -10 -16 -21 -50 -25 -75 -25 -162 -138 -266
-329 -305 -29 -6 -22 -14 240 -276 l269 -269 12 59 c7 33 21 79 33 104 50 105
176 192 280 192 63 0 51 8 234 -147 70 -60 133 -109 139 -109 7 -1 19 -1 28 0
9 1 36 -15 60 -35 24 -19 64 -52 89 -72 24 -21 106 -91 182 -157 76 -66 169
-144 206 -173 37 -29 111 -97 165 -150 141 -139 431 -451 462 -497 22 -32 139
-162 391 -435 22 -25 164 -180 314 -345 295 -324 428 -469 530 -580 36 -39
130 -142 210 -230 232 -256 273 -297 315 -316 49 -23 94 -24 143 -4 40 17 472
439 498 487 22 42 18 136 -9 180 -19 33 -1887 1748 -1903 1748 -11 0 -378 347
-494 468 -132 137 -235 254 -441 500 -115 137 -145 179 -141 197 4 23 -34 70
-435 547 -82 97 -107 144 -97 186 16 68 108 143 222 181 51 17 87 21 205 21
172 0 238 11 292 48 73 50 120 185 79 226 -13 14 -49 16 -247 15 -128 -1 -255
-5 -282 -9z"/>
</g>
</svg>
