<?xml version="1.0" standalone="no"?>
<!DOCTYPE svg PUBLIC "-//W3C//DTD SVG 20010904//EN"
 "http://www.w3.org/TR/2001/REC-SVG-20010904/DTD/svg10.dtd">
<svg version="1.0" xmlns="http://www.w3.org/2000/svg"
 width="39" height="38" viewBox="0 0 512.000000 512.000000"
 preserveAspectRatio="xMidYMid meet">
<metadata>
Created by potrace 1.16, written by Peter Selinger 2001-2019
</metadata>
<g transform="translate(0.000000,512.000000) scale(0.100000,-0.100000)"
fill="#000000" stroke="none">
<path d="M1380 5104 c-193 -51 -359 -186 -446 -362 -69 -143 -67 -116 -71
-850 l-4 -663 -32 7 c-56 12 -220 7 -291 -10 -195 -46 -363 -184 -452 -371
-48 -102 -64 -174 -64 -295 0 -129 16 -196 75 -316 68 -139 196 -259 332 -313
l48 -19 5 -187 c5 -181 6 -187 29 -206 33 -27 68 -24 102 10 l29 29 0 160 0
159 103 6 c215 11 333 92 252 172 -29 30 -48 31 -124 5 -192 -64 -397 -16
-542 129 -79 79 -121 157 -145 272 -61 286 144 575 439 621 267 41 529 -137
592 -403 13 -55 15 -214 15 -1122 l0 -1059 -182 4 c-168 3 -187 5 -226 26 -66
35 -119 88 -149 150 -28 57 -28 57 -33 319 -5 251 -6 263 -26 284 -31 30 -91
30 -115 0 -17 -21 -19 -44 -19 -270 0 -273 7 -320 61 -422 60 -111 193 -211
317 -238 29 -6 87 -11 127 -11 l75 0 0 -75 c0 -165 94 -265 248 -265 73 0 124
19 170 63 55 52 75 102 80 195 l5 82 997 0 997 0 5 -83 c5 -96 27 -145 86
-199 51 -46 98 -61 182 -56 87 5 151 42 195 112 26 43 30 60 33 138 l4 88 74
0 c146 0 250 39 349 132 35 32 76 83 93 116 55 103 62 150 62 423 0 226 -2
249 -19 270 -27 33 -87 30 -118 -6 -23 -26 -23 -31 -23 -270 0 -221 -2 -249
-20 -299 -26 -69 -83 -134 -151 -171 -54 -30 -56 -30 -236 -33 l-183 -4 0
1059 c0 908 2 1067 15 1122 63 266 325 444 592 403 427 -67 599 -587 294 -893
-67 -68 -123 -102 -221 -135 -79 -27 -233 -25 -317 4 -80 28 -98 28 -128 -3
-81 -80 37 -161 253 -172 l102 -6 0 -159 0 -160 29 -29 c34 -34 69 -37 102
-10 23 19 24 25 29 206 l5 187 48 19 c136 54 264 174 332 313 59 120 75 187
75 316 0 126 -16 196 -70 305 -89 181 -256 316 -447 361 -70 17 -234 22 -290
10 l-33 -8 0 322 c0 262 -3 326 -15 349 -24 48 -81 56 -120 16 l-25 -24 0
-363 -1 -363 -56 -35 c-85 -54 -186 -168 -233 -264 -51 -104 -68 -174 -76
-307 l-7 -107 -66 32 -66 31 -1035 0 -1035 0 -66 -31 -66 -32 -7 107 c-8 134
-25 203 -77 310 -48 96 -145 206 -233 261 l-56 35 3 690 c2 688 2 690 25 749
64 170 185 288 346 339 l71 22 1100 0 1100 0 71 -26 c137 -50 241 -141 303
-263 45 -89 61 -177 61 -348 0 -134 2 -150 20 -168 44 -44 108 -31 132 28 15
40 3 352 -17 427 -66 239 -257 427 -500 490 -87 22 -2270 22 -2355 -1z m2213
-2757 c48 -21 95 -64 119 -111 19 -35 23 -62 26 -183 l4 -143 -1182 0 -1182 0
4 143 c3 121 7 148 26 183 23 46 71 90 117 110 45 20 2021 20 2068 1z m145
-749 l3 -158 -1181 0 -1180 0 0 153 c0 85 3 157 7 160 3 4 533 6 1177 5 l1171
-3 3 -157z m-8 -473 l0 -155 -1170 0 -1170 0 0 155 0 155 1170 0 1170 0 0
-155z m10 -470 l0 -155 -1180 0 -1180 0 0 155 0 155 1180 0 1180 0 0 -155z"/>
<path d="M2067 4499 c-27 -16 -49 -67 -42 -98 8 -39 46 -72 84 -73 89 -3 133
91 72 153 -31 31 -79 38 -114 18z"/>
<path d="M2496 4484 c-59 -59 -20 -154 64 -154 55 0 90 34 90 88 0 53 -38 92
-90 92 -27 0 -45 -7 -64 -26z"/>
<path d="M2943 4486 c-37 -32 -39 -93 -4 -130 37 -39 100 -37 135 5 35 41 34
83 -3 120 -38 37 -88 39 -128 5z"/>
<path d="M1847 4054 c-73 -40 -55 -154 27 -170 100 -18 151 101 70 165 -31 25
-58 26 -97 5z"/>
<path d="M2305 4061 c-35 -15 -59 -50 -59 -88 0 -28 7 -42 33 -65 28 -25 39
-29 70 -24 90 14 112 129 31 171 -32 17 -45 18 -75 6z"/>
<path d="M2738 4055 c-57 -32 -65 -99 -19 -146 39 -38 80 -39 123 0 25 22 32
36 32 65 0 68 -77 114 -136 81z"/>
<path d="M3172 4045 c-39 -32 -47 -67 -27 -109 30 -62 113 -72 155 -19 35 44
19 112 -31 139 -40 20 -63 17 -97 -11z"/>
<path d="M2053 3676 c-22 -19 -28 -32 -28 -66 0 -55 37 -90 95 -90 30 0 43 6
64 31 35 41 34 83 -3 120 -38 37 -88 39 -128 5z"/>
<path d="M2495 3675 c-57 -56 -15 -155 65 -155 80 0 122 99 65 155 -34 35 -96
35 -130 0z"/>
<path d="M2943 3676 c-22 -19 -28 -32 -28 -66 0 -53 38 -90 91 -90 47 0 94 45
94 90 0 22 -9 41 -29 61 -38 37 -88 39 -128 5z"/>
<path d="M626 2786 c-56 -21 -86 -45 -122 -98 -55 -81 -55 -175 0 -256 109
-162 334 -141 415 38 66 145 -39 312 -203 326 -31 3 -67 -2 -90 -10z m151
-192 c14 -27 14 -37 3 -64 -35 -85 -160 -62 -160 30 0 89 119 115 157 34z"/>
<path d="M4360 2791 c-107 -35 -180 -128 -180 -231 0 -84 55 -171 134 -212 57
-31 155 -31 213 0 92 48 146 160 123 259 -14 66 -62 130 -118 161 -45 25 -131
37 -172 23z m118 -174 c15 -14 22 -32 22 -57 0 -91 -125 -115 -160 -30 -17 41
2 88 43 105 36 15 64 9 95 -18z"/>
</g>
</svg>
